<?xml version="1.0" encoding="UTF-8"?>
<svg id="Layer_1" data-name="Layer 1" xmlns="http://www.w3.org/2000/svg" viewBox="0 0 340.78 249.89">
  <defs>
    <style>
      .cls-1 {
        fill: #3c54a4;
        stroke-width: .25px;
      }

      .cls-1, .cls-2 {
        stroke: #231f20;
      }

      .cls-2 {
        fill: #e9292a;
        stroke-width: .5px;
      }
    </style>
  </defs>
  <g>
    <path class="cls-1" d="M72.18,50.97l-1.55-1.25,4.39-5.47,1.55,1.25-1.33,1.65,5.46,4.39-1.76,2.19-5.46-4.39-1.31,1.63Z"/>
    <path class="cls-1" d="M77.6,41.39l2.17,1.98.02-.02c-.11-.41-.1-.79.04-1.14.14-.34.32-.64.54-.89.19-.21.39-.39.61-.54.22-.15.44-.25.68-.3.24-.05.49-.04.74.04.26.08.51.23.77.47l3.79,3.47-1.84,2.01-3.32-3.04c-.21-.19-.4-.29-.56-.3-.16-.01-.32.07-.49.25s-.23.35-.21.51c.02.16.14.34.35.53l3.32,3.04-1.84,2.01-6.64-6.07,1.84-2.01Z"/>
    <path class="cls-1" d="M90.31,40.73c-.1-.08-.21-.16-.32-.25l-.02.02c.1.32.08.65-.05.99-.13.34-.35.65-.66.94-.3.29-.58.5-.85.63-.27.13-.53.2-.78.2-.25,0-.49-.06-.72-.18-.23-.12-.44-.29-.64-.5-.22-.23-.38-.46-.49-.68-.11-.22-.16-.45-.15-.7,0-.24.07-.51.2-.8.13-.29.32-.62.57-.98l.63-.9c.17-.24.26-.45.27-.62,0-.17-.06-.32-.21-.48-.29-.3-.6-.29-.94.03-.19.18-.29.36-.29.53,0,.17.12.39.36.66l-1.7,1.63c-.34-.36-.54-.72-.59-1.08-.05-.36-.02-.71.09-1.04.11-.33.28-.65.5-.94.22-.29.45-.54.67-.76.34-.33.68-.61,1.01-.84.33-.23.66-.39.98-.47.32-.08.64-.07.94.02.31.1.62.3.92.63l2.3,2.4c.22.23.43.42.62.58.19.16.39.26.59.31l-1.9,1.82c-.12-.05-.23-.11-.33-.19ZM89.25,39.99c-.03-.22-.18-.47-.44-.75l-.57-.59-.02.02c0,.12-.04.25-.15.38-.11.13-.21.29-.3.49-.09.21-.12.39-.09.54.04.16.13.32.29.48.16.16.33.25.51.27.18.01.34-.05.49-.19.22-.21.31-.43.28-.65Z"/>
    <path class="cls-1" d="M89.54,29.82l1.1,1.28-2.06,1.78-1.1-1.28,2.06-1.78ZM90.97,31.47l4.46,5.15-2.06,1.78-4.46-5.15,2.06-1.78Z"/>
    <path class="cls-1" d="M99.45,22.2l1.13,1.55-2.9,2.11.9,1.24,2.71-1.98,1.08,1.49-2.71,1.98,1.05,1.45,3.01-2.19,1.13,1.55-5.28,3.84-5.29-7.27,5.17-3.76Z"/>
    <path class="cls-1" d="M106.18,22.46c-.15-.06-.33-.02-.54.1-.21.13-.32.27-.34.43-.02.16.04.36.19.61l2.34,3.84-2.33,1.41-3.54-5.83,2.25-1.37.43.71.03-.02c-.05-.76.34-1.39,1.17-1.89.48-.29.9-.44,1.24-.45.34,0,.68.1,1.01.31-.02-.44.09-.82.32-1.15.23-.32.53-.6.89-.81.26-.16.51-.28.76-.37.25-.09.49-.12.73-.1.24.02.46.11.68.25s.42.37.61.69l2.67,4.39-2.33,1.41-2.33-3.84c-.15-.24-.3-.39-.45-.45-.15-.06-.33-.02-.54.1-.21.13-.32.27-.34.43-.02.16.04.36.19.61l2.33,3.84-2.33,1.41-2.33-3.84c-.15-.24-.3-.39-.45-.45Z"/>
    <path class="cls-1" d="M114.16,13.54l1.31,2.64h.03c-.03-.39.06-.71.27-.97s.49-.48.83-.65c.35-.17.69-.28,1.02-.32.33-.04.65.02.96.16.31.14.61.39.91.73.3.34.6.81.89,1.4.56,1.14.82,2.05.76,2.75-.06.7-.5,1.25-1.31,1.65-.43.21-.82.31-1.16.29-.34-.02-.67-.16-.99-.42h-.03s.41.85.41.85l-2.36,1.17-4-8.06,2.44-1.21ZM117.08,19.35c.13.21.25.37.36.47.11.11.23.17.35.17.12,0,.24-.02.38-.09.14-.07.25-.16.31-.25.06-.1.09-.22.07-.38-.02-.16-.07-.35-.16-.58-.09-.23-.22-.5-.38-.83-.17-.33-.31-.6-.44-.81-.13-.21-.25-.37-.36-.47-.11-.11-.23-.16-.35-.17-.12,0-.25.02-.39.1-.13.07-.24.15-.3.25-.06.1-.09.23-.07.38.02.16.07.35.16.58.09.23.22.51.38.84.16.32.3.59.43.8Z"/>
    <path class="cls-1" d="M124.25,16.43c.14.34.31.54.49.59.19.05.37.04.54-.03.22-.09.37-.24.43-.44.06-.2,0-.52-.17-.95l2.26-.94c.3.78.31,1.47.02,2.05-.29.58-.96,1.09-2,1.52-.6.25-1.13.41-1.59.47-.46.06-.86,0-1.22-.15-.36-.16-.68-.42-.96-.79-.28-.37-.55-.86-.79-1.46-.25-.6-.41-1.14-.46-1.61s0-.89.15-1.26c.15-.37.4-.7.76-.99.35-.29.82-.55,1.38-.79.5-.21.96-.34,1.38-.4.42-.06.81-.02,1.16.11.35.13.67.36.96.69.29.33.55.78.79,1.36l.27.64-3.73,1.55.34.83ZM124.25,12.94c-.16-.11-.38-.12-.65,0-.26.11-.41.26-.44.46s.02.46.16.79l.12.28,1.38-.58-.12-.28c-.14-.33-.29-.56-.45-.67Z"/>
    <path class="cls-1" d="M133,5.88l2.91,8.51-2.49.85-.3-.88h-.03c-.04.42-.17.76-.39,1.01-.22.25-.56.46-1.02.61-.86.29-1.56.22-2.09-.23-.54-.45-1.01-1.27-1.42-2.47-.21-.61-.33-1.14-.35-1.6-.03-.45.02-.84.14-1.17.12-.32.31-.59.56-.8.26-.21.56-.38.92-.5.36-.12.71-.17,1.05-.14.33.03.63.19.88.48h.03s-.95-2.8-.95-2.8l2.58-.88ZM131.11,13.4c.1.22.2.4.3.52.1.12.21.19.32.22.11.02.25,0,.4-.04.14-.05.25-.12.33-.21.08-.09.12-.21.12-.37s-.02-.35-.08-.59c-.06-.24-.15-.53-.26-.87-.12-.35-.23-.64-.33-.86-.1-.22-.2-.4-.3-.52-.1-.12-.21-.19-.32-.22-.12-.02-.24-.01-.39.04-.15.05-.27.12-.34.21-.08.09-.12.21-.12.37s.02.35.08.59c.06.24.15.53.27.88.12.34.22.62.32.85Z"/>
    <path class="cls-1" d="M141.2,3.63l2.32,8.69-2.54.68-.24-.9h-.03c-.07.42-.22.74-.46.98-.24.24-.59.42-1.06.54-.88.23-1.57.11-2.07-.37-.5-.48-.92-1.34-1.25-2.56-.17-.62-.25-1.16-.24-1.62,0-.45.08-.84.22-1.15.14-.31.35-.57.62-.76.27-.19.59-.34.95-.44.37-.1.72-.12,1.05-.07s.61.23.84.54h.03s-.76-2.86-.76-2.86l2.63-.7ZM138.8,11c.08.23.17.41.26.54.09.13.19.21.31.24.11.03.25.02.4-.02.15-.04.26-.1.34-.18.08-.08.13-.2.15-.36.02-.16,0-.35-.04-.6-.04-.24-.11-.54-.2-.88-.1-.36-.18-.65-.27-.88-.08-.23-.17-.41-.26-.54-.09-.13-.19-.21-.31-.24-.11-.03-.24-.03-.39.01-.16.04-.28.1-.36.19-.08.08-.13.2-.15.36-.02.16,0,.35.04.6.04.24.11.54.21.9.09.35.18.64.26.87Z"/>
    <path class="cls-1" d="M146.68,9.5c.07.36.19.59.37.68.17.09.35.12.54.08.24-.05.41-.16.51-.35.1-.19.11-.51.02-.96l2.4-.47c.14.83.01,1.5-.39,2.01s-1.16.88-2.27,1.1c-.64.13-1.19.17-1.65.14-.46-.03-.85-.16-1.17-.39-.32-.22-.58-.55-.79-.97-.2-.42-.36-.95-.49-1.59-.13-.64-.17-1.2-.13-1.67.04-.47.17-.87.39-1.21.22-.33.53-.61.94-.82s.91-.38,1.51-.5c.53-.11,1.01-.14,1.43-.12.42.03.79.14,1.11.34.32.2.59.49.8.87.21.38.38.88.5,1.49l.13.68-3.96.78.17.88ZM147.37,6.08c-.14-.14-.35-.19-.64-.13-.28.05-.45.17-.52.36-.07.19-.07.46,0,.81l.06.3,1.47-.29-.06-.3c-.07-.35-.17-.6-.31-.75Z"/>
    <path class="cls-1" d="M157.35.89l1.16,8.92-2.61.34-.12-.92h-.03c-.12.4-.32.7-.58.91-.27.2-.64.34-1.12.4-.9.12-1.57-.1-2-.64-.44-.54-.74-1.45-.9-2.7-.08-.64-.09-1.19-.03-1.63.06-.45.18-.82.36-1.12.18-.29.42-.52.71-.68s.63-.26,1-.31c.38-.05.73-.03,1.05.07.32.1.58.31.76.64h.03s-.38-2.93-.38-2.93l2.7-.35ZM154.01,7.88c.05.24.11.43.19.57.07.14.16.23.27.28.11.05.24.06.4.04.15-.02.27-.06.36-.14.09-.07.16-.18.19-.34.04-.15.05-.35.04-.6s-.04-.55-.09-.9c-.05-.37-.1-.67-.15-.91-.05-.24-.11-.43-.19-.57-.07-.14-.16-.23-.27-.28-.11-.04-.24-.06-.39-.04-.16.02-.29.07-.38.14-.09.07-.16.18-.19.34-.04.15-.05.35-.04.6.01.24.04.55.09.92.05.36.1.66.15.9Z"/>
    <path class="cls-1" d="M167.85,2.66c0-.27-.08-.5-.22-.68-.14-.18-.34-.27-.61-.27-.3,0-.52.1-.66.26-.14.17-.2.35-.2.55,0,.29.13.52.36.69s.52.31.87.42c.35.12.72.23,1.11.35.4.12.77.28,1.12.48.35.2.64.47.88.8.24.33.36.77.38,1.32.03.96-.28,1.66-.92,2.11s-1.58.69-2.82.73c-.58.02-1.1-.01-1.55-.08-.45-.07-.83-.2-1.15-.38-.31-.19-.55-.44-.72-.76-.17-.31-.26-.71-.28-1.18v-.31s2.71-.07,2.71-.07v.21c.02.39.11.66.29.81.18.15.4.22.67.21.29,0,.51-.1.67-.27.15-.17.22-.38.22-.62,0-.29-.12-.52-.34-.69-.22-.17-.5-.31-.83-.42-.33-.11-.69-.23-1.08-.34-.39-.12-.75-.27-1.08-.46-.33-.19-.61-.45-.84-.77-.23-.32-.35-.75-.36-1.28-.03-.92.25-1.62.82-2.12.57-.49,1.45-.76,2.64-.79,1.23-.03,2.13.16,2.69.59.56.43.86,1.12.88,2.09l-2.63.07v-.21Z"/>
    <path class="cls-1" d="M172.37,9.82c.1.01.2.02.3.02.17,0,.32,0,.43-.05s.21-.08.29-.13c.07-.05.12-.11.16-.16.03-.06.05-.1.05-.14,0-.05,0-.12-.03-.2-.02-.08-.04-.17-.07-.27l-1.9-6.5,2.8.11.66,4.63h.03s.96-4.57.96-4.57l2.72.1-2.46,6.92c-.14.39-.29.71-.45.96-.17.25-.36.45-.58.59-.22.14-.47.24-.76.29s-.61.07-.97.05c-.29-.01-.56-.03-.81-.04-.25-.02-.49-.04-.72-.07l.06-1.59c.1.02.2.04.3.05Z"/>
    <path class="cls-1" d="M181.22,8.01c.02.12.06.22.12.3.11.17.3.27.55.29.21.02.4-.01.56-.1.17-.08.26-.22.28-.4.02-.2-.06-.37-.25-.49-.19-.13-.42-.25-.7-.36-.28-.11-.59-.23-.91-.36-.33-.12-.63-.28-.9-.47-.28-.19-.5-.42-.67-.71-.17-.28-.23-.64-.19-1.06.03-.3.12-.57.28-.81.16-.24.38-.45.66-.61.28-.17.64-.28,1.05-.35.42-.07.9-.08,1.45-.02,2.04.2,2.99,1.01,2.84,2.43l-2.35-.23c.03-.29-.01-.5-.13-.61-.12-.12-.29-.19-.52-.21-.2-.02-.37.01-.51.09-.14.08-.22.2-.23.37-.02.19.06.35.25.46.19.12.42.23.71.33.28.1.59.21.92.33.33.12.63.27.9.45.28.18.5.42.67.7.17.28.23.64.19,1.08-.03.33-.14.63-.32.89-.18.26-.41.48-.71.65-.3.17-.65.29-1.07.35-.42.06-.88.06-1.39.01-1.13-.11-1.93-.38-2.39-.81-.46-.42-.65-1.01-.58-1.75l2.38.23c-.01.13-.01.26,0,.38Z"/>
    <path class="cls-1" d="M187.34,3.6l.3-1.98,2.69.41-.3,1.98,1.06.16-.23,1.51-1.06-.16-.49,3.21c-.03.19,0,.33.09.43.09.1.25.16.47.19l.42.06-.23,1.5c-.25-.04-.5-.07-.75-.09-.25-.03-.49-.05-.72-.09-.41-.06-.76-.13-1.04-.2-.28-.07-.51-.18-.68-.33s-.28-.34-.33-.58-.05-.55,0-.92l.54-3.59-.9-.14.23-1.51.9.14Z"/>
    <path class="cls-1" d="M193.57,9.41c-.07.36-.05.62.07.77.12.15.28.24.47.28.24.05.44,0,.61-.13.17-.13.29-.43.39-.88l2.4.49c-.19.82-.57,1.39-1.14,1.7s-1.41.36-2.51.13c-.64-.13-1.17-.3-1.58-.51-.41-.21-.72-.48-.93-.81-.21-.33-.33-.73-.35-1.2-.02-.47.03-1.02.16-1.65.13-.64.31-1.17.53-1.59.22-.42.5-.74.83-.96.33-.22.73-.35,1.18-.39.46-.04.99,0,1.59.13.53.11.99.26,1.37.45.38.19.68.44.9.74.22.31.35.68.4,1.11.05.43.01.96-.11,1.56l-.14.68-3.95-.81-.18.88ZM195.53,6.52c-.07-.19-.25-.31-.53-.37-.28-.06-.48-.01-.62.13-.14.14-.24.39-.32.75l-.06.3,1.47.3.06-.3c.07-.35.07-.62,0-.81Z"/>
    <path class="cls-1" d="M202.97,8.59c-.06-.15-.21-.26-.44-.33-.23-.07-.42-.06-.55.04-.13.09-.24.28-.32.55l-1.27,4.32-2.61-.77,1.92-6.54,2.52.74-.23.8h.03c.53-.54,1.26-.67,2.18-.4.54.16.93.36,1.17.61.24.25.39.57.45.95.31-.31.67-.49,1.06-.53.4-.05.8,0,1.2.11.29.08.55.19.78.31.23.12.42.28.56.47.14.19.24.42.28.67.04.26,0,.56-.09.92l-1.45,4.93-2.61-.77,1.27-4.32c.08-.27.09-.49.03-.64-.06-.15-.21-.26-.44-.33-.23-.07-.41-.06-.55.04-.13.09-.24.28-.32.55l-1.27,4.32-2.61-.77,1.27-4.32c.08-.27.09-.49.03-.63Z"/>
    <path class="cls-1" d="M211.73,15.01c-.01.12,0,.23.04.33.06.2.21.34.45.43.2.08.39.09.57.06.18-.04.31-.14.37-.32.07-.19.04-.37-.11-.54-.14-.17-.34-.35-.58-.53-.24-.18-.5-.38-.79-.59-.28-.21-.53-.44-.75-.69-.22-.25-.37-.54-.46-.86-.09-.32-.06-.68.1-1.08.11-.28.27-.52.48-.71.21-.19.48-.33.8-.42.32-.08.69-.1,1.11-.06.42.04.89.17,1.41.36,1.91.73,2.61,1.77,2.1,3.1l-2.2-.85c.11-.27.12-.48.04-.63-.08-.14-.23-.26-.44-.34-.19-.07-.36-.09-.51-.05-.16.04-.26.14-.32.29-.07.18-.03.35.12.51.15.16.35.33.59.5.25.17.51.36.8.56.29.2.54.42.75.67.22.25.37.53.46.85.09.32.05.68-.1,1.09-.12.31-.3.57-.54.78-.24.2-.53.35-.86.44-.33.09-.71.11-1.12.05-.42-.05-.86-.17-1.35-.36-1.06-.41-1.76-.88-2.09-1.41-.33-.53-.36-1.15-.09-1.84l2.23.86c-.05.13-.08.25-.09.37Z"/>
    <path class="cls-1" d="M227.74,14.2l-1.67,9.22-2.68-1.34.45-1.54-2-1-.96,1.28-2.64-1.32,6.34-6.89,3.16,1.58ZM225.32,15.05l-2.4,3.07,1.41.7,1.02-3.76h-.03Z"/>
    <path class="cls-1" d="M229.11,23.23c-.03.12-.04.23-.02.33.03.2.16.37.37.5.18.11.37.16.55.15.18,0,.33-.09.42-.25.1-.17.1-.36-.02-.55-.11-.19-.28-.4-.49-.62-.21-.22-.44-.46-.68-.71-.24-.25-.45-.52-.62-.8-.17-.29-.27-.59-.31-.92-.04-.33.05-.68.27-1.05.15-.26.35-.47.59-.62.24-.15.53-.25.86-.28.33-.03.7,0,1.1.12.41.11.85.31,1.33.59,1.77,1.04,2.29,2.17,1.56,3.4l-2.03-1.19c.15-.25.19-.46.14-.61-.06-.15-.18-.29-.38-.41-.17-.1-.34-.15-.5-.13-.16.01-.28.09-.37.24-.1.17-.09.34.03.52s.29.38.5.59c.21.21.45.44.69.69.25.24.46.51.63.79.17.28.28.59.31.91s-.06.68-.28,1.06c-.17.29-.39.52-.66.68-.27.16-.58.26-.92.29-.34.03-.71,0-1.12-.13-.4-.12-.83-.31-1.27-.57-.98-.58-1.59-1.15-1.83-1.73-.24-.58-.17-1.19.21-1.83l2.06,1.21c-.07.12-.12.23-.15.35Z"/>
    <path class="cls-1" d="M235.21,27c-.04.12-.05.22-.04.33.02.21.13.38.34.52.18.12.36.18.54.18.19,0,.33-.07.43-.23.11-.17.12-.35.02-.55-.1-.2-.25-.42-.45-.65-.2-.23-.41-.48-.64-.75-.23-.26-.42-.54-.57-.84-.15-.3-.24-.61-.25-.94-.02-.33.1-.67.33-1.03.17-.25.38-.45.63-.59.25-.14.54-.22.87-.23s.69.05,1.09.19c.4.14.83.36,1.29.67,1.7,1.14,2.15,2.3,1.36,3.49l-1.96-1.31c.16-.24.22-.44.18-.6-.05-.16-.17-.3-.36-.43-.17-.11-.33-.17-.49-.16-.16,0-.29.08-.38.21-.11.16-.11.34,0,.52.11.19.26.4.46.62.2.23.42.47.65.73.23.26.43.53.58.82.16.29.24.6.26.93.02.33-.1.67-.34,1.04-.19.28-.42.49-.7.64-.28.15-.59.23-.93.24-.34.01-.71-.05-1.11-.2-.4-.14-.81-.36-1.23-.65-.95-.63-1.52-1.25-1.72-1.84-.2-.59-.1-1.2.32-1.82l1.98,1.33c-.08.11-.13.23-.17.34Z"/>
    <path class="cls-1" d="M244.79,33.55c-.32.29-.68.5-1.07.61-.39.12-.83.11-1.32,0-.48-.12-1.03-.42-1.64-.88-.63-.48-1.08-.94-1.33-1.36-.26-.43-.38-.84-.37-1.24.01-.4.12-.79.34-1.17.21-.38.47-.77.77-1.17.27-.35.57-.68.89-.97.32-.29.68-.5,1.08-.62s.84-.12,1.33,0c.49.12,1.04.41,1.65.87.63.48,1.08.94,1.33,1.37.25.43.37.85.36,1.25-.02.4-.13.79-.34,1.18-.21.38-.47.77-.77,1.16-.27.35-.57.68-.89.97ZM241.7,30.86c-.15.23-.25.43-.3.59-.05.16-.05.3-.01.4.04.11.12.2.24.3.12.09.24.15.35.16.11.01.24-.02.38-.12.14-.09.3-.24.49-.45.18-.2.4-.48.66-.82.26-.34.47-.63.62-.86.15-.23.26-.43.31-.59.05-.16.06-.29.01-.4-.04-.11-.13-.21-.25-.3-.12-.09-.24-.14-.35-.15-.11-.01-.24.03-.39.12-.14.09-.31.24-.49.45-.19.21-.41.48-.67.82s-.46.62-.62.85Z"/>
    <path class="cls-1" d="M250.49,34.87c.09-.15.15-.29.18-.41.04-.22-.04-.42-.27-.62-.11-.1-.23-.16-.35-.18-.12-.02-.26,0-.41.09-.15.08-.33.22-.53.41-.2.19-.44.44-.71.76-.28.32-.5.59-.66.81-.16.22-.27.41-.33.57-.06.16-.07.3-.03.42.04.12.12.23.23.32.19.17.39.23.59.2.21-.03.45-.21.73-.53l.29-.33,1.84,1.61c-.35.41-.7.71-1.03.93-.33.21-.68.32-1.04.33-.69,0-1.47-.38-2.34-1.14-.39-.34-.73-.69-1.01-1.03-.28-.34-.45-.71-.52-1.1-.07-.39-.02-.81.15-1.26.17-.45.49-.96.98-1.51.53-.61,1.03-1.03,1.49-1.27s.91-.35,1.32-.33c.42.02.82.14,1.21.37.39.23.78.51,1.17.85.46.4.79.78,1,1.15.21.37.32.72.34,1.06.02.34-.06.68-.21,1-.16.33-.38.65-.66.97l-1.85-1.61c.18-.21.32-.39.41-.54Z"/>
    <path class="cls-1" d="M256.5,37.74l-4.73,4.91-1.96-1.89,4.73-4.91,1.96,1.89ZM258.01,36.17l-1.17,1.22-1.96-1.89,1.17-1.22,1.96,1.89Z"/>
    <path class="cls-1" d="M255.58,46.05c.08-.1.16-.21.25-.32l-.02-.02c-.32.1-.65.08-.99-.06-.33-.14-.65-.36-.94-.67-.28-.3-.49-.59-.62-.86-.13-.27-.2-.53-.19-.78,0-.25.07-.49.19-.72.12-.23.29-.44.5-.64.23-.22.46-.38.68-.49.22-.11.46-.16.7-.15.24,0,.51.07.8.2.29.13.61.32.97.58l.89.64c.24.17.45.26.61.27.17.01.33-.06.48-.2.31-.29.3-.6-.02-.94-.18-.19-.35-.29-.53-.29-.17,0-.39.11-.66.35l-1.62-1.72c.36-.34.72-.53,1.08-.58.36-.05.71-.02,1.04.1.33.11.65.29.93.51.29.23.54.45.75.68.32.35.6.68.83,1.02.23.33.38.66.46.98.08.32.07.64-.03.94-.1.31-.31.61-.63.92l-2.42,2.28c-.23.22-.43.42-.58.61-.16.19-.26.38-.31.59l-1.8-1.92c.05-.12.12-.23.19-.33ZM256.32,45c.22-.03.47-.18.75-.44l.6-.56-.02-.02c-.12,0-.25-.05-.38-.15-.13-.11-.29-.21-.48-.3-.21-.1-.39-.13-.54-.09-.16.04-.32.13-.48.29-.17.16-.26.32-.27.5s.05.34.18.49c.21.22.42.32.65.28Z"/>
    <path class="cls-1" d="M263.3,44.99l1.53-1.29,1.76,2.08-1.53,1.29.69.82-1.17.98-.69-.82-2.48,2.1c-.15.12-.22.25-.21.39,0,.13.08.28.23.45l.27.32-1.16.98c-.16-.19-.33-.38-.5-.57-.17-.18-.33-.37-.48-.54-.27-.32-.48-.59-.65-.84-.17-.24-.26-.47-.3-.69-.03-.22.01-.43.14-.65.12-.21.33-.44.62-.69l2.77-2.34-.58-.69,1.17-.98.58.69Z"/>
    <path class="cls-1" d="M268.01,50.79l-5.37,4.2-1.68-2.14,5.37-4.2,1.68,2.14ZM269.73,49.44l-1.33,1.04-1.68-2.15,1.33-1.04,1.68,2.14Z"/>
    <path class="cls-1" d="M268.91,60.13c-.39.19-.8.27-1.21.27-.41,0-.83-.14-1.25-.4-.43-.26-.86-.71-1.3-1.33-.46-.65-.75-1.22-.87-1.7-.12-.48-.11-.91.02-1.29s.35-.72.67-1.02c.32-.3.68-.6,1.08-.88.36-.26.74-.48,1.14-.66.39-.18.8-.27,1.21-.27.41,0,.84.14,1.27.39.43.26.87.7,1.31,1.32.46.65.74,1.22.86,1.71.11.49.1.92-.03,1.3-.13.38-.36.72-.68,1.02-.32.3-.68.6-1.08.88-.36.26-.74.48-1.14.66ZM266.77,56.63c-.21.17-.37.33-.46.47-.1.14-.14.27-.13.38,0,.11.05.23.14.35.09.12.18.21.29.26.11.05.24.05.4,0,.16-.05.36-.14.6-.28.23-.14.53-.33.88-.58.35-.25.63-.46.85-.63.21-.18.37-.33.47-.47.1-.14.14-.26.13-.38s-.06-.24-.15-.36-.18-.21-.29-.25c-.1-.04-.24-.05-.4,0-.17.04-.37.14-.61.28-.24.14-.53.34-.88.58-.35.25-.63.46-.84.63Z"/>
    <path class="cls-1" d="M274.94,60.86l-.71.43.02.03c.76-.05,1.39.34,1.89,1.17.16.26.28.51.37.76.09.25.12.49.1.73-.02.24-.11.47-.25.68-.14.22-.37.42-.69.61l-4.39,2.67-1.41-2.32,3.84-2.34c.24-.15.39-.3.45-.45.06-.15.02-.33-.11-.54-.13-.21-.27-.32-.43-.34s-.36.04-.61.19l-3.84,2.34-1.41-2.33,5.82-3.54,1.37,2.25Z"/>
    <path class="cls-1" d="M284.85,80.15l1.87-.68,2.38,6.6-1.87.68-.72-1.99-6.59,2.38-.96-2.65,6.59-2.38-.71-1.96Z"/>
    <path class="cls-1" d="M290.21,89.77l-2.82.82v.03c.42.12.74.33.96.63s.38.61.47.93c.08.27.12.54.14.8.02.26-.02.51-.1.74-.08.23-.22.43-.42.61-.2.18-.47.32-.81.41l-4.94,1.43-.76-2.61,4.32-1.25c.27-.08.46-.19.55-.32.09-.13.11-.31.04-.55-.07-.23-.18-.38-.32-.44-.15-.06-.36-.05-.64.03l-4.32,1.25-.76-2.61,8.64-2.5.76,2.61Z"/>
    <path class="cls-1" d="M284.15,100.95c.12-.05.25-.09.38-.14v-.03c-.33-.08-.61-.27-.82-.56-.22-.29-.37-.64-.46-1.05-.09-.4-.12-.76-.09-1.05.03-.3.1-.56.24-.77.13-.21.31-.39.53-.52.22-.13.48-.23.76-.29.31-.07.59-.09.83-.07.25.02.47.1.68.23.21.13.4.33.58.59.18.26.36.59.53,1l.44,1c.12.27.25.46.38.55.14.09.31.12.51.07.41-.09.57-.36.47-.81-.06-.26-.16-.43-.3-.52s-.39-.1-.75-.04l-.5-2.3c.49-.11.89-.09,1.23.06.34.14.62.35.84.62.23.27.41.58.54.92.13.34.23.67.29.97.1.46.16.9.19,1.3.02.4-.01.76-.11,1.08s-.27.58-.51.79c-.24.21-.58.37-1.01.46l-3.25.71c-.31.07-.58.14-.82.22-.23.08-.42.19-.57.34l-.56-2.57c.1-.07.22-.13.33-.18ZM285.33,100.43c.21.09.5.09.87.01l.8-.17v-.03c-.11-.06-.2-.17-.25-.33-.06-.16-.14-.33-.26-.51-.13-.19-.27-.31-.42-.36-.15-.05-.34-.05-.56,0-.22.05-.39.15-.49.29s-.14.32-.09.52c.06.3.2.49.41.58Z"/>
    <path class="cls-1" d="M291.7,106.33l-6.72,1.12-.45-2.68,6.72-1.12.45,2.68ZM293.85,105.97l-1.67.28-.45-2.68,1.67-.28.45,2.69Z"/>
    <path class="cls-1" d="M295.22,118.31l-1.91.18-.33-3.57-1.53.14.31,3.34-1.83.17-.31-3.34-1.78.17.34,3.7-1.91.18-.61-6.5,8.96-.84.59,6.37Z"/>
    <path class="cls-1" d="M291.47,124.02c.13-.1.19-.27.19-.51s-.06-.41-.19-.51c-.13-.1-.33-.15-.62-.15h-4.5s0-2.73,0-2.73h6.82s0,2.64,0,2.64h-.83s0,.03,0,.03c.67.35,1.01,1.01,1.01,1.98,0,.56-.09,1-.26,1.29-.17.3-.43.53-.79.7.39.21.66.5.81.87.15.37.23.76.23,1.19,0,.3-.03.58-.08.84-.05.26-.15.48-.3.67-.14.19-.33.34-.57.45-.24.11-.54.17-.91.17h-5.14s0-2.73,0-2.73h4.5c.29,0,.49-.05.62-.15.13-.1.19-.27.19-.51,0-.24-.06-.41-.19-.51-.13-.1-.33-.15-.62-.15h-4.5s0-2.73,0-2.73h4.5c.28,0,.49-.05.62-.15Z"/>
    <path class="cls-1" d="M294.94,135.49l-2.94-.25v.03c.34.17.56.42.67.73.11.32.15.67.12,1.05-.03.39-.12.74-.26,1.04-.14.3-.35.55-.63.74-.28.19-.65.32-1.1.4-.45.08-1,.09-1.65.03-1.26-.11-2.18-.37-2.74-.78-.56-.41-.81-1.07-.73-1.97.04-.48.16-.86.35-1.14.19-.28.48-.48.88-.62v-.03s-.93-.08-.93-.08l.22-2.62,8.96.77-.23,2.71ZM288.46,134.96c-.24,0-.44.02-.59.06-.15.04-.26.11-.33.21-.07.1-.11.22-.12.37-.01.16,0,.29.05.4.05.11.15.19.29.26.14.07.33.12.57.16.24.04.54.08.9.11.37.03.67.05.92.05.24,0,.44-.02.59-.06.15-.04.26-.11.33-.21.07-.1.11-.22.12-.38.01-.15,0-.28-.06-.38-.05-.11-.14-.19-.29-.26-.14-.07-.33-.12-.57-.16-.24-.04-.55-.08-.91-.11-.36-.03-.66-.05-.91-.05Z"/>
    <path class="cls-1" d="M287.23,142.6c-.37-.05-.62-.02-.76.11-.14.13-.23.29-.26.48-.04.24.02.44.16.6.14.16.44.27.9.34l-.37,2.42c-.83-.15-1.41-.5-1.76-1.05-.34-.55-.43-1.39-.26-2.5.1-.65.24-1.18.43-1.6.19-.42.44-.74.76-.97.32-.23.71-.36,1.18-.41.47-.05,1.02-.02,1.66.08.65.1,1.19.25,1.62.44.43.2.76.46,1,.78.24.32.39.71.45,1.16.06.45.05.98-.05,1.59-.08.54-.21,1-.38,1.39-.17.39-.4.7-.7.93-.29.24-.66.39-1.09.46-.43.07-.95.06-1.57-.03l-.68-.11.61-3.99-.88-.14ZM290.21,144.41c.18-.08.3-.26.34-.55.04-.28-.01-.48-.16-.61-.15-.13-.4-.22-.76-.28l-.3-.05-.23,1.48.3.04c.36.06.63.04.81-.04Z"/>
    <path class="cls-1" d="M291.7,155.55l-8.79-1.94.57-2.57.91.2v-.03c-.33-.25-.54-.53-.64-.85-.1-.32-.1-.72,0-1.19.19-.89.62-1.44,1.28-1.67.66-.23,1.61-.2,2.85.07.63.14,1.15.32,1.55.53.4.21.71.45.92.72s.35.57.39.9c.05.33.03.68-.05,1.04-.08.37-.22.7-.43.97-.2.27-.49.44-.87.5v.03s2.87.63,2.87.63l-.59,2.66ZM286.26,150.03c-.24-.03-.44-.04-.6-.02-.16.02-.27.08-.35.16-.08.08-.13.21-.17.36-.03.15-.03.28,0,.39.04.11.12.21.25.29s.31.17.55.24c.23.07.53.15.88.22.36.08.66.14.9.17.24.03.44.04.6.02.15-.02.27-.08.35-.16.08-.09.13-.2.17-.35.04-.16.03-.29,0-.4-.04-.11-.12-.21-.25-.3-.13-.09-.32-.17-.55-.24-.23-.07-.53-.15-.89-.23-.35-.08-.65-.13-.89-.17Z"/>
    <path class="cls-1" d="M289.37,163.73l-8.63-2.54.74-2.52.89.26v-.03c-.31-.27-.5-.57-.58-.9-.08-.33-.05-.72.09-1.19.25-.87.72-1.4,1.4-1.58.67-.18,1.62-.09,2.84.27.62.18,1.12.39,1.51.63.39.24.68.5.87.78.2.28.31.59.33.92.02.33-.02.68-.12,1.04-.11.37-.27.68-.49.93-.22.26-.52.4-.9.44v.03s2.82.83,2.82.83l-.77,2.61ZM284.32,157.85c-.24-.05-.44-.07-.59-.06-.16.01-.28.06-.36.14-.08.08-.15.2-.2.35-.04.14-.05.27-.02.39.03.11.1.22.23.31.13.09.3.19.53.27.23.09.52.18.86.29.35.1.65.18.89.23.24.05.44.07.59.06.16-.01.28-.06.36-.14.08-.08.15-.19.19-.34.05-.15.05-.29.03-.4-.03-.11-.1-.22-.23-.31-.12-.09-.3-.19-.53-.27-.23-.09-.52-.18-.87-.29-.35-.1-.64-.18-.88-.23Z"/>
    <path class="cls-1" d="M281.51,165.37c-.35-.13-.6-.14-.77-.04-.17.1-.28.24-.35.42-.08.23-.07.43.04.62.11.18.38.36.81.51l-.84,2.3c-.78-.31-1.29-.77-1.51-1.38-.23-.61-.15-1.45.24-2.5.23-.62.47-1.11.74-1.48.27-.38.58-.64.94-.8.36-.16.77-.21,1.24-.17.47.05,1,.18,1.61.4.62.23,1.11.48,1.5.76s.66.6.83.96c.17.36.24.77.21,1.23-.03.46-.15.97-.36,1.55-.19.51-.4.94-.65,1.28s-.53.6-.87.78c-.34.17-.72.25-1.16.23s-.95-.13-1.53-.34l-.65-.24,1.39-3.79-.84-.31ZM284.07,167.73c.2-.04.34-.2.44-.47.1-.26.08-.48-.04-.63-.12-.16-.35-.3-.69-.42l-.29-.1-.51,1.4.28.1c.34.12.61.17.8.12Z"/>
    <path class="cls-1" d="M283.31,178.96l-8.22-3.65,1.07-2.41.85.38v-.03c-.26-.31-.42-.63-.46-.97-.04-.34.04-.72.24-1.17.37-.83.9-1.29,1.59-1.38.69-.09,1.62.12,2.78.64.59.26,1.06.54,1.41.82.35.29.61.58.76.89.16.31.23.63.21.96-.02.33-.1.67-.25,1.01-.15.35-.36.64-.61.86-.25.22-.57.33-.95.32v.03s2.68,1.2,2.68,1.2l-1.1,2.49ZM279.08,172.46c-.23-.08-.42-.12-.58-.13-.16,0-.28.02-.38.09-.09.07-.17.17-.24.32-.06.14-.09.27-.07.38s.08.23.19.34c.11.11.27.22.49.34s.49.25.82.4c.34.15.62.26.85.35.23.08.42.12.58.13.16,0,.28-.02.38-.09.09-.07.17-.17.23-.31.07-.15.09-.28.08-.39-.01-.12-.08-.23-.19-.34-.11-.11-.27-.22-.49-.34-.21-.12-.49-.25-.83-.4-.33-.15-.61-.26-.84-.34Z"/>
    <path class="cls-1" d="M276.32,187.01c.23.13.46.19.69.17.23-.02.41-.15.55-.38.15-.26.19-.5.12-.7-.07-.2-.2-.36-.37-.46-.25-.15-.51-.16-.77-.05-.26.11-.53.28-.81.52-.28.23-.58.49-.88.76-.31.28-.64.51-.99.7-.35.19-.73.3-1.14.33-.41.03-.85-.09-1.32-.37-.83-.48-1.27-1.11-1.32-1.89-.05-.78.24-1.71.85-2.79.29-.51.58-.94.88-1.28.29-.35.6-.61.93-.78.32-.17.67-.24,1.02-.22.36.02.74.15,1.15.38l.27.16-1.35,2.36-.19-.11c-.33-.19-.61-.25-.83-.18-.22.07-.4.22-.53.46-.15.25-.18.49-.12.71.07.22.21.39.42.51.25.15.51.17.77.07.26-.1.52-.26.79-.49s.55-.47.85-.74c.3-.27.62-.5.96-.68.34-.18.7-.29,1.1-.31s.82.09,1.28.36c.79.46,1.25,1.06,1.38,1.8.12.74-.11,1.63-.7,2.67-.61,1.07-1.25,1.73-1.9,1.98-.66.26-1.4.14-2.24-.34l1.31-2.28.19.11Z"/>
    <path class="cls-1" d="M267.86,187.11c-.06.08-.12.16-.18.25-.1.14-.16.27-.19.39-.03.12-.04.22-.03.31,0,.09.02.16.06.22.03.06.06.1.09.12.04.03.1.05.19.08.08.03.17.05.27.08l6.54,1.77-1.55,2.33-4.29-1.85-.02.03,3.39,3.2-1.51,2.27-4.62-5.7c-.26-.32-.46-.61-.58-.89-.13-.27-.19-.54-.2-.8,0-.26.04-.53.15-.8s.26-.55.46-.85c.16-.24.31-.47.46-.67.14-.2.29-.39.43-.58l1.32.88c-.07.07-.14.15-.2.23Z"/>
    <path class="cls-1" d="M264.79,195.62c-.11-.05-.22-.06-.32-.05-.21,0-.39.11-.54.31-.13.17-.2.35-.21.53-.01.18.05.33.2.44.16.12.34.14.55.05.21-.09.43-.23.67-.41.24-.18.5-.38.78-.59.28-.21.57-.39.87-.53s.62-.2.95-.2c.33,0,.67.13,1.01.39.24.18.42.4.55.66s.19.55.18.88c0,.33-.09.69-.25,1.08-.16.39-.41.81-.74,1.25-1.23,1.63-2.42,2.02-3.56,1.16l1.42-1.88c.23.18.43.25.59.21.16-.04.31-.15.45-.33.12-.16.18-.32.19-.48,0-.16-.06-.29-.19-.39-.15-.12-.33-.12-.52-.03-.2.1-.41.24-.65.43s-.49.39-.76.61c-.27.22-.56.4-.86.54-.3.14-.62.21-.94.21-.33,0-.67-.14-1.02-.4-.27-.2-.47-.45-.6-.74-.13-.29-.19-.6-.19-.95,0-.34.09-.71.26-1.09s.4-.78.71-1.2c.69-.91,1.33-1.45,1.93-1.62.6-.17,1.2-.03,1.8.42l-1.44,1.91c-.11-.08-.22-.14-.33-.19Z"/>
    <path class="cls-1" d="M265.36,203.14l1.53,1.29-1.75,2.09-1.54-1.29-.69.82-1.17-.98.69-.82-2.49-2.09c-.15-.12-.29-.17-.42-.14-.13.03-.27.13-.41.3l-.27.32-1.16-.97c.16-.19.32-.39.47-.59.15-.2.3-.39.45-.57.27-.32.5-.58.71-.78.21-.21.42-.34.63-.41s.43-.06.66.02.49.25.78.49l2.78,2.33.58-.7,1.17.98-.58.7Z"/>
    <path class="cls-1" d="M257.16,205.43c-.27-.25-.5-.36-.69-.34-.19.03-.35.11-.48.25-.17.18-.23.37-.21.58s.21.48.55.79l-1.67,1.79c-.6-.59-.89-1.21-.86-1.86.03-.65.42-1.39,1.19-2.21.45-.48.87-.84,1.26-1.08.39-.24.78-.37,1.17-.37.39,0,.79.1,1.2.32.41.22.85.56,1.33,1,.48.45.84.87,1.08,1.28s.37.81.39,1.21c.02.4-.08.81-.28,1.22-.2.41-.52.84-.93,1.29-.37.4-.74.71-1.1.93-.36.22-.73.35-1.1.38-.38.03-.76-.05-1.16-.23-.4-.18-.82-.49-1.28-.91l-.51-.47,2.75-2.96-.65-.61ZM258.6,208.61c.2.04.39-.05.59-.27.19-.21.26-.41.21-.6-.05-.19-.21-.41-.47-.66l-.22-.21-1.02,1.1.22.21c.26.25.49.39.69.42Z"/>
    <path class="cls-1" d="M252.98,213.88c.16.03.33-.04.51-.21.18-.16.26-.33.25-.49,0-.16-.11-.35-.3-.56l-3.03-3.32,2.01-1.83,4.59,5.04-1.94,1.77-.56-.61-.02.02c.19.73-.07,1.43-.79,2.08-.42.38-.79.61-1.13.68-.34.07-.69.04-1.05-.11.1.43.07.82-.1,1.19-.17.36-.41.69-.72.97-.22.2-.45.37-.67.5-.23.13-.46.21-.7.23-.24.02-.48-.01-.72-.11-.24-.1-.49-.28-.73-.56l-3.46-3.8,2.01-1.83,3.03,3.32c.19.21.37.33.53.35.16.02.33-.04.51-.21.18-.16.26-.33.25-.49s-.11-.35-.3-.56l-3.03-3.32,2.01-1.83,3.03,3.32c.19.21.37.33.53.35Z"/>
    <path class="cls-1" d="M242.93,218.04c-.1-.08-.2-.12-.3-.14-.2-.05-.4,0-.6.16-.17.13-.28.28-.34.46-.06.18-.04.34.08.48.12.16.3.22.52.19.22-.03.47-.11.76-.22.28-.11.58-.24.91-.37.32-.13.65-.23.98-.28.33-.05.65-.04.97.05.32.09.61.3.87.64.18.24.3.5.36.78.05.28.03.58-.06.9-.09.32-.27.64-.52.98-.26.34-.6.67-1.04,1.01-1.62,1.25-2.87,1.31-3.74.18l1.87-1.44c.18.23.35.35.52.36.16,0,.34-.06.52-.21.16-.12.26-.26.31-.41.05-.15.02-.3-.08-.43-.12-.15-.28-.21-.5-.16-.21.04-.46.12-.74.24-.28.12-.58.25-.89.39s-.64.24-.97.29c-.33.06-.65.04-.97-.05-.32-.09-.61-.31-.88-.65-.21-.27-.33-.55-.38-.87-.05-.31-.03-.63.07-.96s.27-.66.54-.99c.26-.33.59-.65,1-.97.9-.7,1.67-1.05,2.29-1.05.62,0,1.17.29,1.62.88l-1.89,1.46c-.08-.11-.17-.2-.27-.27Z"/>
    <path class="cls-1" d="M235.32,232.15l-7.02-6.21,2.53-1.59,1.08,1.18,1.89-1.19-.6-1.49,2.5-1.57,2.6,8.99-2.99,1.88ZM235.85,229.64l-1.38-3.64-1.33.84,2.69,2.82.03-.02Z"/>
    <path class="cls-1" d="M226.88,228.64c-.08-.09-.17-.15-.27-.18-.19-.08-.4-.06-.62.06-.19.1-.32.23-.41.4-.09.16-.09.33,0,.49.09.18.25.27.48.27s.49-.03.78-.09.62-.14.96-.22c.34-.08.68-.12,1.01-.12.33,0,.65.07.95.21.3.14.55.4.75.78.14.27.22.54.22.83,0,.29-.06.58-.21.88-.14.3-.37.59-.68.88-.31.29-.71.57-1.19.83-1.8.97-3.04.83-3.72-.43l2.08-1.12c.14.26.29.4.45.44.16.03.34,0,.55-.11.18-.1.3-.22.37-.36.07-.14.07-.29-.01-.44-.09-.17-.25-.25-.47-.24-.22,0-.48.05-.77.12-.29.07-.61.15-.95.24-.34.09-.67.13-1,.13-.33,0-.65-.07-.94-.21s-.55-.4-.76-.79c-.16-.3-.24-.6-.24-.92s.08-.63.22-.94c.15-.31.38-.61.69-.89.31-.28.69-.54,1.15-.79,1-.54,1.81-.76,2.43-.67.62.1,1.11.47,1.46,1.13l-2.1,1.13c-.06-.12-.14-.22-.22-.31Z"/>
    <path class="cls-1" d="M220.52,231.87c-.08-.09-.16-.16-.26-.2-.19-.09-.39-.08-.62.02-.19.09-.34.21-.44.37-.1.16-.11.32-.03.49.08.18.24.28.46.3.23.02.49,0,.79-.04.3-.05.62-.1.97-.16.34-.06.68-.08,1.02-.06.33.02.64.11.93.27.29.16.53.43.71.82.13.27.18.55.17.84-.01.29-.1.57-.26.86-.16.29-.4.57-.73.84-.33.27-.74.52-1.24.75-1.86.86-3.08.64-3.69-.65l2.14-.99c.12.27.26.42.42.46.16.04.34.01.55-.08.18-.08.32-.2.39-.33.08-.14.09-.28.01-.44-.08-.17-.23-.27-.45-.27-.22,0-.48.02-.77.07s-.62.11-.96.18c-.34.07-.68.09-1.01.07-.33-.02-.64-.11-.93-.26-.29-.16-.53-.43-.71-.83-.14-.31-.2-.62-.18-.93.02-.31.11-.62.28-.92.17-.3.41-.58.74-.84s.73-.5,1.19-.72c1.03-.48,1.86-.65,2.47-.52.61.13,1.07.54,1.39,1.22l-2.17,1c-.06-.12-.12-.23-.2-.32Z"/>
    <path class="cls-1" d="M209.92,236.67c-.08-.43-.08-.84.03-1.24.1-.4.34-.77.69-1.12.36-.35.89-.66,1.61-.94.74-.29,1.36-.43,1.86-.43.5,0,.91.11,1.25.33.33.22.61.52.83.9.22.38.42.8.6,1.26.16.42.28.84.37,1.26.08.43.07.84-.03,1.24s-.33.78-.69,1.14c-.35.36-.89.67-1.6.95-.74.29-1.36.43-1.86.42-.5,0-.92-.12-1.25-.35s-.61-.52-.83-.9c-.22-.38-.42-.8-.59-1.26-.16-.42-.29-.83-.37-1.26ZM213.83,235.43c-.12-.25-.23-.43-.35-.56-.11-.13-.23-.2-.34-.22-.11-.02-.24,0-.38.05-.14.05-.25.13-.32.22s-.11.22-.1.39c0,.17.05.38.13.65.08.26.2.59.35.99.15.4.29.72.41.98.12.25.23.44.34.57.11.13.22.2.34.22s.24,0,.38-.05c.14-.05.25-.13.31-.22.07-.09.1-.22.1-.39,0-.17-.04-.39-.12-.65-.08-.27-.2-.6-.35-1-.16-.4-.29-.72-.41-.97Z"/>
    <path class="cls-1" d="M205.85,240.84c.08.16.17.28.26.36.16.15.38.18.66.1.14-.05.26-.11.34-.21.08-.09.13-.22.14-.4,0-.17-.02-.4-.07-.66-.06-.27-.15-.6-.28-1-.13-.4-.24-.73-.35-.98s-.21-.45-.32-.58-.22-.22-.34-.24c-.12-.03-.25-.02-.4.03-.24.08-.4.21-.48.4-.08.19-.06.49.07.9l.13.42-2.34.74c-.16-.51-.25-.97-.25-1.36s.08-.75.25-1.06c.35-.59,1.08-1.05,2.19-1.4.5-.16.97-.27,1.4-.32.44-.06.84-.02,1.21.13.37.14.7.4,1,.78.3.38.56.92.78,1.62.24.77.34,1.42.31,1.94s-.17.96-.41,1.3c-.23.35-.55.63-.95.84-.4.21-.84.4-1.33.55-.58.18-1.07.27-1.5.25-.42-.01-.78-.1-1.08-.27-.3-.17-.55-.4-.74-.7-.2-.3-.36-.66-.49-1.07l2.34-.74c.08.26.17.47.25.63Z"/>
    <path class="cls-1" d="M200.25,244.48l-1.73-6.59,2.63-.69,1.73,6.59-2.63.69ZM200.8,246.59l-.43-1.63,2.63-.69.43,1.63-2.63.69Z"/>
    <path class="cls-1" d="M193.64,239.36c.04.12.09.25.14.38h.03c.09-.33.27-.61.56-.82.29-.21.64-.37,1.06-.45.41-.08.76-.11,1.06-.08.3.03.56.11.77.24.21.14.38.31.51.54.13.22.22.48.28.76.07.31.08.59.06.84-.03.25-.1.47-.24.67-.13.2-.33.4-.59.58-.26.18-.6.35-1,.53l-1.01.43c-.27.12-.46.25-.55.38-.1.14-.12.31-.08.51.08.41.35.57.81.47.26-.05.43-.15.52-.3.09-.14.11-.39.04-.75l2.31-.48c.1.49.08.9-.07,1.23-.15.33-.36.61-.63.84s-.58.4-.92.53c-.34.13-.67.22-.98.29-.46.1-.9.16-1.3.18-.4.02-.76-.02-1.08-.12-.31-.1-.58-.27-.79-.52-.21-.24-.36-.58-.45-1.02l-.68-3.26c-.07-.31-.14-.58-.22-.82-.08-.23-.19-.42-.33-.57l2.57-.54c.07.1.13.22.18.34ZM194.15,240.54c-.09.21-.1.5-.02.87l.17.8h.03c.06-.11.17-.19.33-.25.16-.05.33-.14.51-.26.19-.12.31-.26.36-.42.05-.15.05-.34,0-.56-.04-.22-.14-.39-.29-.49-.15-.11-.32-.14-.51-.1-.3.06-.49.2-.58.4Z"/>
    <path class="cls-1" d="M190.53,246.5l.3,1.98-2.69.41-.3-1.98-1.06.16-.23-1.51,1.06-.16-.49-3.21c-.03-.19-.1-.32-.22-.38-.12-.06-.28-.08-.5-.04l-.42.06-.23-1.49c.25-.04.5-.08.74-.13.25-.05.49-.09.71-.13.41-.06.76-.1,1.05-.12.29-.02.54.02.74.11.2.09.36.24.48.45.12.22.21.51.27.88l.55,3.59.9-.14.23,1.51-.9.14Z"/>
    <path class="cls-1" d="M183.1,247.5l-.78-6.77,2.7-.31.78,6.77-2.7.31ZM183.36,249.66l-.19-1.68,2.7-.31.19,1.68-2.7.31Z"/>
    <path class="cls-1" d="M174.67,243.38c.05-.43.19-.82.41-1.17.22-.35.56-.63,1-.86.45-.22,1.05-.36,1.82-.41.79-.05,1.43,0,1.9.16.47.15.84.38,1.09.69.25.31.42.68.51,1.11.09.43.15.89.18,1.38.03.44.01.88-.03,1.31-.05.43-.19.82-.41,1.17-.22.35-.55.64-1,.88-.44.23-1.05.37-1.81.42-.79.05-1.43,0-1.9-.17-.47-.16-.84-.4-1.09-.71-.25-.31-.42-.68-.51-1.11-.09-.43-.15-.89-.18-1.38-.03-.44-.02-.88.03-1.31ZM178.77,243.39c-.04-.27-.09-.48-.16-.64s-.15-.26-.25-.31c-.1-.05-.22-.08-.38-.07-.15,0-.27.05-.37.11-.1.07-.17.18-.21.34-.05.16-.07.38-.07.65,0,.27,0,.62.03,1.05.03.43.06.78.09,1.05.04.28.09.49.15.65.06.16.15.26.25.31.1.05.23.07.38.07.15,0,.27-.05.36-.11.09-.06.16-.18.21-.34.05-.16.08-.38.08-.66,0-.28,0-.63-.03-1.06-.03-.43-.06-.78-.09-1.05Z"/>
    <path class="cls-1" d="M170.9,248.16v-.83s-.03,0-.03,0c-.35.67-1.01,1.01-1.98,1.01-.3,0-.58-.03-.84-.08-.26-.06-.48-.15-.67-.3-.19-.14-.34-.33-.45-.57-.11-.24-.17-.54-.17-.91v-5.14h2.72v4.5c0,.29.05.49.15.62.1.13.27.19.51.19s.41-.06.51-.19c.1-.13.15-.33.15-.62v-4.5s2.72,0,2.72,0v6.82h-2.63Z"/>
    <path class="cls-1" d="M157.78,247.78l-.26,1.97-6.96-.9.26-1.97,2.1.27.9-6.95,2.79.36-.9,6.95,2.07.27Z"/>
    <path class="cls-1" d="M146.77,248.13l.57-2.88h-.03c-.3.3-.63.49-1,.55-.37.06-.71.06-1.04,0-.28-.06-.54-.14-.78-.24-.24-.11-.44-.25-.61-.43-.17-.18-.28-.4-.35-.65-.07-.26-.07-.56,0-.91l.99-5.04,2.67.52-.87,4.41c-.05.28-.04.49.03.63.08.14.23.24.47.29s.42.02.54-.09c.12-.1.21-.3.27-.58l.87-4.41,2.67.53-1.74,8.83-2.67-.53Z"/>
    <path class="cls-1" d="M139.59,237.62c-.01.12-.03.26-.05.4h.03c.22-.25.51-.4.87-.46s.74-.04,1.15.07c.4.11.73.24.98.4.26.16.45.35.58.57.13.22.2.45.22.71.01.26-.02.53-.09.81-.08.31-.19.57-.32.77-.13.21-.31.37-.52.5-.21.12-.47.2-.79.25-.31.04-.69.05-1.13.02l-1.09-.07c-.3-.02-.52,0-.67.09-.15.08-.25.22-.3.42-.11.41.06.67.51.79.25.07.45.06.6-.03.15-.09.27-.3.38-.65l2.28.61c-.13.48-.33.83-.61,1.07-.28.23-.59.39-.94.47-.34.08-.7.1-1.06.05-.37-.04-.7-.1-1-.18-.46-.12-.87-.27-1.24-.43-.37-.16-.67-.36-.91-.59-.24-.23-.39-.5-.47-.82s-.06-.68.05-1.11l.86-3.21c.08-.31.14-.58.17-.83.03-.24.02-.46-.04-.66l2.54.68c.02.12.02.25,0,.38ZM139.52,238.9c-.17.14-.31.4-.41.76l-.21.79h.03c.1-.06.24-.08.4-.06.17.02.36.02.57,0,.23-.03.4-.1.51-.21.11-.11.2-.28.26-.5.06-.22.05-.41-.04-.57-.08-.16-.22-.27-.41-.32-.29-.08-.53-.04-.7.1Z"/>
    <path class="cls-1" d="M130.68,243.93l.52-1.61,2.59.83-.52,1.61-2.59-.83ZM131.35,241.86l2.09-6.49,2.59.83-2.09,6.49-2.59-.83Z"/>
    <path class="cls-1" d="M119.02,239.41l.74-1.77,3.31,1.38.59-1.42-3.1-1.3.71-1.7,3.1,1.3.69-1.65-3.43-1.44.74-1.77,6.02,2.53-3.48,8.3-5.9-2.47Z"/>
    <path class="cls-1" d="M115.74,233.5c.03.16.15.29.37.41.21.11.4.14.54.07.15-.07.29-.23.42-.48l2.08-3.99,2.41,1.26-3.15,6.05-2.33-1.22.38-.74h-.03c-.62.42-1.36.41-2.22-.04-.5-.26-.84-.54-1.03-.83-.18-.29-.27-.63-.26-1.02-.37.25-.75.35-1.15.32s-.79-.15-1.16-.34c-.27-.14-.5-.29-.71-.46-.2-.17-.36-.36-.46-.57-.1-.22-.15-.45-.14-.71.01-.26.1-.55.27-.88l2.38-4.56,2.41,1.26-2.08,3.99c-.13.25-.18.46-.15.62.03.16.15.29.37.41.21.11.39.13.54.07.15-.07.29-.22.42-.48l2.08-3.99,2.41,1.26-2.08,3.99c-.13.25-.18.46-.15.62Z"/>
    <path class="cls-1" d="M104,231.32l1.58-2.49-.02-.02c-.31.22-.63.31-.96.26-.33-.05-.66-.17-.99-.38-.33-.21-.6-.45-.8-.71-.2-.26-.32-.56-.36-.9-.04-.34.01-.72.15-1.16.14-.43.38-.93.73-1.48.68-1.07,1.33-1.76,1.96-2.07.62-.31,1.32-.22,2.09.26.41.26.69.54.85.83.16.3.21.65.15,1.06l.03.02.5-.79,2.22,1.41-4.81,7.6-2.3-1.46ZM107.45,225.81c.11-.22.19-.4.22-.56.03-.15.02-.28-.03-.39s-.15-.2-.27-.28c-.14-.08-.26-.13-.38-.14-.12,0-.24.04-.36.14-.13.09-.26.24-.41.43-.15.2-.32.45-.51.75-.2.31-.35.58-.47.79-.11.22-.19.4-.22.56-.03.15-.02.28.03.39.05.1.15.2.29.29.13.08.25.12.37.13.12,0,.24-.04.36-.14.13-.1.26-.24.41-.43.15-.2.32-.45.52-.76.19-.31.35-.57.46-.78Z"/>
    <path class="cls-1" d="M101.23,221.18c.22-.3.3-.54.25-.73-.05-.19-.15-.34-.31-.45-.2-.14-.4-.19-.6-.13-.21.05-.45.26-.72.64l-1.98-1.44c.51-.67,1.09-1.03,1.74-1.08s1.43.26,2.34.92c.53.38.94.76,1.22,1.12.29.36.46.73.51,1.12s0,.8-.18,1.23c-.17.44-.45.91-.83,1.44-.39.53-.77.94-1.14,1.23s-.76.47-1.15.53c-.4.07-.81.02-1.24-.13-.43-.15-.89-.41-1.39-.77-.44-.32-.79-.65-1.06-.97-.26-.33-.43-.68-.51-1.05-.07-.37-.04-.76.09-1.18.14-.42.39-.88.75-1.38l.41-.56,3.26,2.38.53-.72ZM98.25,223c-.01.2.1.38.33.56.23.17.43.21.62.14.19-.07.38-.26.6-.55l.18-.24-1.21-.88-.18.24c-.21.29-.33.54-.34.73Z"/>
    <path class="cls-1" d="M87.66,219.19l5.76-6.91,2.02,1.68-.6.72.02.02c.37-.18.73-.24,1.06-.18.33.06.68.24,1.06.55.7.58.99,1.22.89,1.91-.1.69-.56,1.52-1.37,2.5-.41.5-.81.88-1.18,1.13-.37.26-.73.42-1.07.49-.34.07-.67.05-.98-.06-.32-.11-.62-.29-.9-.52-.29-.25-.51-.52-.66-.82-.15-.3-.16-.64-.04-1l-.02-.02-1.89,2.26-2.09-1.74ZM95.06,216.9c.14-.2.24-.38.29-.52.05-.15.06-.28.02-.39-.04-.11-.12-.22-.25-.32-.12-.1-.23-.16-.35-.17-.12-.02-.24,0-.38.09-.14.08-.29.2-.46.38-.17.17-.37.4-.6.68-.24.29-.43.53-.57.73-.14.2-.24.37-.29.52-.05.15-.06.28-.02.39.04.11.12.21.23.31.12.1.24.16.36.18s.24,0,.38-.09c.14-.08.29-.2.46-.38.17-.17.38-.4.61-.69.23-.28.42-.52.56-.72Z"/>
    <path class="cls-1" d="M81.48,213.37l6.21-6.5,1.9,1.82-.64.67.02.02c.38-.15.74-.19,1.07-.11.33.08.67.29,1.02.62.66.63.91,1.28.76,1.96-.15.68-.66,1.48-1.54,2.4-.45.47-.86.82-1.25,1.05-.39.23-.75.37-1.1.42s-.67,0-.97-.13c-.31-.13-.6-.32-.87-.58-.28-.26-.48-.55-.61-.87-.13-.31-.12-.65.02-1l-.02-.02-2.04,2.13-1.97-1.88ZM89.02,211.58c.15-.19.26-.36.32-.5.06-.14.08-.27.04-.38-.03-.11-.11-.22-.22-.33-.11-.1-.22-.17-.33-.2-.11-.03-.24,0-.38.06-.14.07-.3.18-.49.35-.18.16-.4.37-.65.63-.26.27-.46.5-.61.69-.15.19-.26.36-.32.5-.06.14-.08.27-.04.39.03.11.1.22.21.33.12.11.23.18.35.21.11.03.24,0,.38-.06.14-.07.3-.18.49-.34.18-.16.4-.38.66-.64.25-.26.45-.49.61-.68Z"/>
    <path class="cls-1" d="M83.63,205.63c.27-.25.4-.47.39-.67-.01-.19-.08-.36-.21-.5-.16-.18-.35-.26-.56-.25s-.49.17-.83.49l-1.66-1.8c.63-.55,1.27-.79,1.92-.71.65.08,1.35.53,2.12,1.36.44.48.77.93.98,1.34.21.41.3.81.28,1.2-.02.39-.16.78-.42,1.17-.25.39-.62.81-1.1,1.25-.48.44-.93.77-1.36.98-.42.21-.83.31-1.24.29-.4-.02-.8-.14-1.19-.38-.39-.24-.8-.58-1.21-1.03-.37-.4-.65-.79-.85-1.16s-.29-.75-.29-1.13c0-.38.11-.76.32-1.14.21-.38.55-.78,1.01-1.2l.51-.47,2.73,2.97.66-.61ZM80.35,206.82c-.05.19.02.39.22.61.19.21.38.29.58.26s.43-.17.69-.42l.22-.2-1.01-1.1-.22.2c-.27.24-.42.46-.48.65Z"/>
    <path class="cls-1" d="M70.72,201.01l7.01-5.64,1.65,2.05-.73.58.02.02c.4-.1.76-.09,1.07.03.31.12.62.37.93.75.57.71.73,1.39.5,2.04-.24.66-.85,1.38-1.84,2.18-.5.41-.96.7-1.38.88s-.8.27-1.14.27c-.35,0-.66-.09-.95-.25-.29-.17-.55-.4-.78-.69-.24-.3-.4-.61-.49-.94-.08-.33-.03-.66.15-.99l-.02-.02-2.3,1.85-1.71-2.12ZM78.43,200.22c.18-.17.31-.32.39-.46.08-.14.11-.26.09-.38-.02-.12-.08-.24-.18-.36-.09-.12-.2-.2-.31-.24s-.24-.04-.39.01c-.15.05-.33.14-.53.28-.2.14-.44.32-.73.55-.29.23-.52.43-.7.6-.18.17-.31.32-.38.46-.08.13-.11.26-.09.38.02.12.07.23.17.35.1.13.21.21.32.25.11.04.24.04.39,0,.15-.05.33-.14.53-.28.2-.14.45-.32.74-.55.28-.23.51-.42.69-.59Z"/>
    <path class="cls-1" d="M66.77,191.12c-.23.15-.38.33-.47.54-.09.21-.06.43.09.66.17.25.35.4.57.43.21.03.41-.01.58-.12.25-.16.38-.38.4-.67.02-.28,0-.61-.09-.96s-.17-.73-.28-1.14c-.1-.4-.16-.8-.17-1.2,0-.4.07-.79.23-1.17.16-.38.47-.71.93-1.01.8-.52,1.57-.62,2.29-.31.72.32,1.42.99,2.09,2.04.32.49.56.95.74,1.37.18.42.27.81.27,1.18,0,.37-.09.7-.27,1.01-.18.31-.47.59-.86.85l-.26.17-1.48-2.29.18-.12c.33-.21.51-.43.54-.66.04-.23-.02-.46-.17-.68-.16-.25-.35-.39-.58-.43-.23-.04-.44,0-.65.14-.25.16-.38.38-.41.65-.03.28,0,.58.07.92.08.34.16.71.27,1.1.1.39.16.78.17,1.16,0,.38-.07.76-.22,1.12-.16.36-.46.68-.9.97-.77.5-1.51.63-2.23.4s-1.4-.85-2.05-1.85c-.67-1.03-.96-1.9-.89-2.6.07-.7.51-1.31,1.33-1.84l1.43,2.21-.18.12Z"/>
    <path class="cls-1" d="M70.55,183.54c-.04-.09-.09-.18-.14-.27-.08-.15-.17-.26-.26-.35-.09-.08-.18-.14-.26-.17-.08-.04-.16-.05-.22-.05-.07,0-.11.01-.14.03-.04.02-.1.07-.16.13-.06.06-.12.13-.19.2l-4.57,5-1.36-2.44,3.61-2.96v-.03s-4.42,1.55-4.42,1.55l-1.32-2.38,7.19-1.49c.4-.09.76-.12,1.05-.11.3.01.57.08.81.19s.45.28.64.5c.19.22.37.49.55.8.14.25.27.49.38.71.11.22.22.44.32.65l-1.39.77c-.03-.1-.07-.19-.11-.28Z"/>
    <path class="cls-1" d="M64.4,176.92c.09-.08.16-.17.2-.26.09-.19.08-.39-.03-.62-.09-.19-.22-.33-.38-.43-.16-.1-.32-.11-.49-.03-.18.09-.28.24-.29.47s0,.49.06.79.11.62.17.97c.06.34.09.68.07,1.02-.02.33-.1.64-.26.94-.15.29-.42.53-.81.72-.27.13-.55.19-.84.18-.29,0-.58-.09-.87-.25-.29-.16-.57-.4-.85-.72-.27-.32-.53-.73-.77-1.23-.88-1.85-.68-3.08.61-3.69l1.02,2.13c-.27.13-.42.27-.46.43-.04.16,0,.34.09.55.09.18.2.31.34.39.14.08.29.08.44,0,.17-.08.26-.23.26-.45,0-.22-.03-.48-.08-.77s-.12-.61-.19-.96c-.07-.34-.1-.68-.08-1.01.01-.33.1-.64.25-.93s.43-.53.82-.72c.3-.15.61-.21.93-.19.31.02.62.11.92.27.3.16.59.41.85.73.27.33.51.72.73,1.18.49,1.03.68,1.85.55,2.46-.13.61-.53,1.08-1.2,1.41l-1.03-2.16c.12-.06.23-.12.32-.2Z"/>
    <path class="cls-1" d="M57.45,173.96l-1.85.77-1.05-2.51,1.85-.77-.41-.99,1.41-.59.41.99,3-1.25c.18-.07.28-.18.32-.31.03-.13,0-.29-.08-.5l-.16-.39,1.4-.58c.1.23.2.46.31.69.11.23.21.45.3.66.16.38.28.71.37.99.08.28.11.53.07.75-.04.22-.14.41-.33.58-.18.17-.44.33-.79.47l-3.35,1.4.35.84-1.41.59-.35-.84Z"/>
    <path class="cls-1" d="M59.19,165.61c.35-.12.55-.28.62-.46.06-.18.06-.37,0-.55-.08-.23-.22-.38-.42-.45-.2-.07-.52-.03-.95.12l-.82-2.31c.8-.26,1.48-.23,2.04.09.57.32,1.04,1.02,1.42,2.08.22.62.35,1.15.38,1.61.03.46-.04.86-.21,1.21-.17.35-.46.66-.84.92-.39.26-.89.5-1.5.72-.62.22-1.16.34-1.63.37-.47.03-.89-.04-1.25-.21-.36-.17-.68-.44-.95-.81-.27-.37-.51-.84-.71-1.42-.18-.51-.29-.98-.33-1.4-.03-.42.02-.81.17-1.15.15-.35.4-.65.74-.92.35-.27.81-.51,1.4-.71l.65-.23,1.35,3.8.84-.3ZM55.7,165.43c-.12.16-.14.37-.04.65.09.27.24.42.43.46.19.04.46,0,.8-.12l.29-.1-.5-1.41-.29.1c-.34.12-.57.26-.69.42Z"/>
    <path class="cls-1" d="M53.62,158.02c-.09.13-.11.31-.05.55.06.23.17.38.31.45.15.07.36.06.64-.01l4.35-1.16.7,2.63-6.59,1.75-.68-2.54.8-.21v-.03c-.75-.17-1.24-.72-1.49-1.65-.14-.55-.17-.98-.08-1.32.09-.33.28-.63.58-.88-.43-.1-.76-.32-1.01-.63-.25-.31-.42-.68-.53-1.09-.08-.29-.12-.57-.14-.83-.01-.26.02-.5.11-.73.09-.22.23-.42.43-.58.2-.17.48-.3.83-.39l4.97-1.32.7,2.63-4.35,1.16c-.28.07-.46.18-.56.31-.1.13-.11.31-.05.54.06.23.17.38.31.45.15.07.36.06.63-.01l4.35-1.16.7,2.63-4.35,1.16c-.28.07-.46.18-.56.31Z"/>
    <path class="cls-1" d="M54.56,147.19c.11-.05.2-.12.26-.2.13-.16.18-.36.13-.61-.04-.21-.12-.38-.25-.52-.13-.14-.28-.19-.46-.16-.2.04-.33.16-.41.37-.07.21-.12.47-.16.77-.03.3-.06.63-.09.98-.03.35-.1.68-.2,1-.11.32-.27.59-.5.84-.22.24-.55.4-.97.47-.3.05-.58.04-.86-.04-.28-.08-.53-.24-.77-.47-.24-.23-.45-.53-.63-.92-.18-.38-.32-.85-.42-1.39-.36-2.01.16-3.15,1.56-3.4l.42,2.32c-.29.05-.47.15-.56.29s-.1.33-.06.56c.04.2.11.35.23.47.11.11.25.15.42.12.19-.03.32-.16.38-.37.06-.21.1-.47.12-.77.02-.3.04-.62.07-.97s.08-.68.19-.99c.1-.32.26-.59.49-.83.23-.24.55-.4.98-.48.33-.06.65-.04.95.06.3.1.57.27.82.5.25.24.46.55.63.93s.3.83.39,1.33c.2,1.12.16,1.96-.12,2.52-.28.56-.79.91-1.53,1.04l-.43-2.35c.13-.02.25-.06.36-.11Z"/>
    <path class="cls-1" d="M45.54,134.03l8.71-3.46.28,2.98-1.54.43.21,2.23,1.6.14.27,2.94-9.2-1.74-.33-3.52ZM47.54,135.63l3.87.41-.15-1.57-3.73,1.12v.03Z"/>
    <path class="cls-1" d="M52.55,128.06c.12-.03.21-.08.29-.16.16-.13.23-.33.23-.58,0-.21-.06-.39-.16-.55s-.25-.23-.43-.23c-.2,0-.36.11-.46.3s-.2.44-.28.74-.16.61-.25.95c-.09.34-.21.66-.36.95-.16.3-.36.54-.62.74-.26.2-.61.31-1.03.31-.3,0-.58-.06-.84-.18-.26-.13-.49-.32-.68-.59-.2-.26-.35-.6-.47-1-.12-.41-.18-.89-.19-1.44-.04-2.05.66-3.08,2.09-3.11l.04,2.36c-.29,0-.49.07-.6.2-.1.13-.15.31-.15.54,0,.2.05.37.15.5.09.13.23.19.39.19.19,0,.34-.1.43-.3.09-.2.18-.44.25-.74.07-.29.15-.61.22-.95.08-.34.19-.66.34-.95.15-.29.36-.54.62-.74.26-.2.61-.31,1.05-.31.34,0,.64.06.92.21.28.15.52.36.73.63.21.27.36.61.47,1.02.11.41.17.87.18,1.38.02,1.14-.16,1.96-.52,2.47-.37.51-.93.77-1.67.78l-.04-2.39c.13,0,.26-.02.38-.05Z"/>
    <path class="cls-1" d="M52.59,120.91c.12-.03.22-.07.3-.14.17-.12.25-.31.26-.56,0-.21-.03-.4-.13-.56-.09-.16-.23-.24-.42-.25-.2,0-.36.08-.48.27s-.22.43-.32.72c-.1.29-.2.6-.3.93-.11.33-.25.64-.42.93-.17.29-.39.52-.67.71-.27.19-.62.27-1.05.25-.3-.01-.58-.09-.83-.23-.25-.14-.47-.35-.65-.63-.18-.27-.32-.62-.41-1.03-.09-.41-.13-.9-.1-1.45.09-2.04.84-3.04,2.27-2.97l-.1,2.36c-.29-.01-.5.04-.61.16-.11.12-.17.3-.18.53,0,.2.03.37.12.5.09.13.21.21.38.21.19,0,.34-.08.45-.28.11-.19.2-.43.29-.72.09-.29.18-.6.28-.93.1-.33.23-.64.4-.93.17-.29.39-.52.66-.71.27-.18.63-.27,1.06-.25.34.02.64.1.91.27.27.16.5.39.69.67.19.29.33.63.41,1.05.08.41.11.88.09,1.39-.05,1.14-.27,1.95-.67,2.43-.4.48-.97.71-1.72.68l.1-2.39c.13,0,.26,0,.38-.03Z"/>
    <path class="cls-1" d="M53.18,109.32c.42.12.78.32,1.08.59s.53.65.68,1.13c.15.48.18,1.1.1,1.86-.08.79-.24,1.41-.47,1.85-.23.44-.52.76-.86.96-.35.2-.74.3-1.17.32-.44.02-.9,0-1.4-.05-.44-.05-.87-.13-1.29-.25-.42-.12-.78-.32-1.09-.6-.31-.28-.54-.65-.7-1.13-.16-.48-.19-1.1-.11-1.86.08-.79.25-1.41.48-1.85.24-.44.53-.76.88-.96s.74-.3,1.18-.32c.44-.02.9,0,1.39.05.44.05.87.13,1.29.25ZM52.49,113.36c.27,0,.49,0,.66-.05s.28-.11.35-.2c.07-.09.11-.21.13-.36.02-.15,0-.28-.05-.39-.05-.11-.15-.2-.3-.27-.15-.07-.36-.13-.63-.18s-.62-.1-1.04-.14c-.43-.05-.78-.07-1.06-.08-.28,0-.5,0-.66.04-.16.04-.28.1-.35.2-.07.09-.11.22-.13.37-.02.15,0,.28.05.38.05.1.15.19.3.27.15.08.37.14.64.19.27.05.62.1,1.05.14.43.05.78.07,1.05.08Z"/>
    <path class="cls-1" d="M51.35,103.76c-.17,0-.32.02-.44.06-.21.08-.34.26-.39.55-.03.15-.02.28.03.4.04.12.14.22.29.3.15.09.36.17.62.24.27.07.61.14,1.02.21.41.07.76.12,1.03.14.27.02.49.02.66-.02s.29-.1.37-.19c.08-.09.13-.22.16-.36.04-.25,0-.45-.14-.61-.13-.16-.41-.28-.83-.35l-.43-.08.42-2.41c.53.09.97.22,1.33.4.35.17.63.41.82.71.36.58.44,1.45.25,2.59-.09.52-.21.98-.36,1.4-.15.41-.37.75-.67,1.01-.3.26-.68.44-1.15.53s-1.07.08-1.8-.05c-.79-.14-1.42-.34-1.86-.61s-.77-.59-.97-.96c-.2-.37-.31-.78-.31-1.23,0-.45.03-.93.12-1.44.1-.6.26-1.08.46-1.45.2-.37.45-.65.73-.84.28-.19.61-.3.97-.34.36-.04.75-.02,1.17.06l-.42,2.41c-.27-.05-.5-.07-.67-.07Z"/>
    <path class="cls-1" d="M48.55,96.65l1.65.37-.59,2.66-1.65-.37.59-2.66ZM50.68,97.13l6.65,1.49-.59,2.66-6.65-1.49.59-2.66Z"/>
    <path class="cls-1" d="M58.26,93.6c-.13-.01-.26-.03-.4-.05v.03c.24.23.4.52.46.87.06.36.03.74-.08,1.15-.11.4-.25.72-.41.98-.16.25-.35.44-.57.57-.22.13-.46.2-.71.21-.26.01-.53-.02-.81-.1-.31-.08-.56-.2-.77-.33-.21-.14-.37-.31-.49-.52-.12-.21-.2-.47-.24-.79-.04-.31-.04-.69,0-1.13l.08-1.09c.02-.3,0-.52-.08-.67s-.22-.25-.42-.3c-.41-.11-.67.06-.79.5-.07.25-.06.45.02.6.08.15.3.28.65.38l-.63,2.27c-.48-.13-.83-.34-1.06-.62-.23-.28-.38-.6-.46-.94-.07-.34-.09-.7-.04-1.06.04-.36.11-.7.19-1,.13-.46.27-.87.44-1.24.17-.37.37-.67.6-.9.23-.23.51-.39.82-.46.31-.08.68-.05,1.11.06l3.21.89c.31.08.58.15.83.18.24.04.46.02.66-.04l-.7,2.54c-.13.02-.25.02-.38,0ZM56.98,93.51c-.14-.17-.4-.31-.76-.42l-.79-.22v.03c.06.1.08.24.06.4-.02.17-.03.36,0,.57.02.23.09.4.2.51.11.11.28.2.5.26.22.06.41.05.57-.03.16-.08.27-.22.32-.41.08-.29.05-.52-.09-.7Z"/>
    <path class="cls-1" d="M53.34,87.56l-1.9-.64.87-2.58,1.9.64.34-1.02,1.44.49-.34,1.02,3.08,1.04c.18.06.33.05.44-.02.11-.08.2-.22.27-.43l.13-.4,1.43.48c-.08.24-.15.48-.22.72-.07.24-.14.47-.21.69-.13.39-.26.72-.38.99-.12.27-.27.47-.44.61-.17.14-.38.21-.63.22s-.55-.05-.91-.17l-3.44-1.16-.29.86-1.44-.49.29-.86Z"/>
    <path class="cls-1" d="M53.83,79.73l1.58.6-.97,2.54-1.58-.6.97-2.54ZM55.87,80.5l6.37,2.42-.96,2.54-6.37-2.42.96-2.54Z"/>
    <path class="cls-1" d="M63.38,74.9c.36.24.65.54.85.89.21.36.31.78.31,1.28,0,.5-.16,1.1-.47,1.8-.32.73-.66,1.27-1.01,1.62-.35.35-.72.57-1.11.65-.39.08-.79.07-1.22-.05-.42-.11-.86-.27-1.31-.47-.41-.18-.79-.39-1.15-.63-.36-.24-.65-.54-.86-.9-.21-.36-.32-.79-.32-1.29,0-.5.15-1.1.45-1.81.32-.73.66-1.27,1.02-1.62.36-.35.74-.56,1.13-.65.39-.08.8-.06,1.22.05.42.11.86.27,1.31.47.41.18.79.39,1.16.63ZM61.51,78.55c.26.09.47.14.64.15.17,0,.3-.02.39-.08.09-.06.17-.17.23-.3.06-.14.08-.27.07-.38-.01-.12-.08-.23-.21-.35s-.31-.24-.55-.36-.56-.28-.95-.45c-.39-.17-.72-.3-.98-.4-.26-.09-.48-.15-.65-.16-.17-.01-.3.01-.39.08-.09.07-.17.17-.23.31-.06.14-.08.26-.07.38.02.11.08.23.21.35.12.12.31.24.55.37.25.13.57.28.96.45.39.17.72.3.98.39Z"/>
    <path class="cls-1" d="M60.9,69.36l.74.38v-.03c-.42-.62-.41-1.36.03-2.22.14-.27.29-.5.46-.71s.36-.36.57-.46.45-.15.71-.14c.26.01.55.1.88.27l4.56,2.37-1.26,2.41-3.99-2.08c-.25-.13-.46-.18-.62-.15-.16.03-.29.15-.4.37-.11.21-.13.4-.07.54.07.15.22.29.48.42l3.99,2.08-1.26,2.41-6.05-3.15,1.21-2.33Z"/>
  </g>
  <polygon class="cls-2" points="160.62 86.17 160.62 56.35 89.97 56.35 89.97 81.98 89.97 86.17 89.97 107.6 89.97 135.76 89.97 162.51 89.97 172.91 89.97 193.57 160.62 193.57 160.62 162.51 116.02 162.51 116.02 135.76 156.01 135.76 156.01 107.6 116.02 107.6 116.02 86.17 160.62 86.17"/>
  <polygon class="cls-2" points="78.72 56.35 .25 56.35 .25 90.8 26.38 90.8 26.38 193.57 52.59 193.57 52.59 90.8 78.72 90.8 78.72 56.35"/>
  <path class="cls-2" d="M174.38,96.97c.07-13.97,3.34-24.48,9.14-31.78,5.8-7.31,14.18-10.61,25.98-10.61,11.09,0,19.77,3.61,24.65,9.69,5.42,6.75,8.94,15.75,9.99,31.28l-24.69,1.98s.69-12.36-7.36-16.42-15.1,3.37-13.58,11.32c1.77,9.26,15.2,9.5,25.95,15.91,3.76,2.24,7.27,4.3,10.67,7.51,3.4,3.21,6.23,7.4,8.48,12.6,2.25,5.19,3.35,14.37,3.35,22.7,0,14.62-5.15,27.89-11.65,34.49-6.5,6.61-13.98,10.58-26.28,10.58,0,0-13.03,1.01-22.88-7-9.85-8.02-14.57-27.94-14.54-40.86l24.28-2.65s-.11,17.86,10.08,22.45,16.53-5.3,16.73-10.57c.17-4.48,1.16-12.47-17.76-20.46-19.93-8.41-30.65-20.14-30.56-40.13Z"/>
  <path class="cls-2" d="M308.7,56.35h-27.76l-31.34,137.74h26.22l4.34-23.27h29l4.31,23.27h27l-31.76-137.74ZM285.56,141.84l9.08-48.71,9.08,48.71h-18.16Z"/>
</svg>